<svg xmlns="http://www.w3.org/2000/svg" viewBox="0 0 600 360" role="img" aria-labelledby="title desc">
  <title id="title">ADR uyumlu tanker görseli</title>
  <desc id="desc">Çankaya Nakliyat filosuna ait kırmızı detaylı modern tanker kamyonu illüstrasyonu.</desc>
  <defs>
    <linearGradient id="bg" x1="0%" y1="0%" x2="100%" y2="100%">
      <stop offset="0%" stop-color="#0a0f1f" />
      <stop offset="100%" stop-color="#18233f" />
    </linearGradient>
    <linearGradient id="tank" x1="0%" y1="0%" x2="100%" y2="0%">
      <stop offset="0%" stop-color="#c0c0c0" />
      <stop offset="100%" stop-color="#f4f4f4" />
    </linearGradient>
    <linearGradient id="cab" x1="0%" y1="0%" x2="100%" y2="0%">
      <stop offset="0%" stop-color="#e63946" />
      <stop offset="100%" stop-color="#b7232f" />
    </linearGradient>
  </defs>
  <rect width="600" height="360" fill="url(#bg)" rx="24" />
  <g transform="translate(60 160)">
    <rect x="70" y="-10" width="320" height="120" rx="30" fill="url(#tank)" stroke="#9aa0b8" stroke-width="3" />
    <rect x="18" y="20" width="132" height="100" rx="18" fill="url(#cab)" />
    <rect x="34" y="38" width="72" height="44" rx="10" fill="#f5f5f7" />
    <rect x="132" y="30" width="280" height="10" rx="5" fill="#d9dce6" />
    <rect x="132" y="70" width="280" height="10" rx="5" fill="#d9dce6" />
    <rect x="132" y="50" width="280" height="10" rx="5" fill="#a8b0c6" />
    <rect x="132" y="90" width="280" height="12" rx="6" fill="#a8b0c6" />
    <rect x="0" y="100" width="430" height="36" rx="12" fill="#1b243b" />
    <circle cx="96" cy="140" r="36" fill="#05070d" />
    <circle cx="96" cy="140" r="22" fill="#adb5d6" />
    <circle cx="320" cy="140" r="36" fill="#05070d" />
    <circle cx="320" cy="140" r="22" fill="#adb5d6" />
    <rect x="410" y="40" width="38" height="52" rx="10" fill="#d92b39" />
    <circle cx="432" cy="104" r="10" fill="#ffb347" />
  </g>
  <text x="300" y="320" fill="#c0c0c0" font-family="Poppins, Montserrat, sans-serif" font-weight="600" font-size="20" text-anchor="middle">ADR UYUMLU TANKER FİLOSU</text>
</svg>
