<svg xmlns="http://www.w3.org/2000/svg" viewBox="0 0 600 360" role="img" aria-labelledby="title desc">
  <title id="title">Uzun yol çekici görseli</title>
  <desc id="desc">Çankaya Nakliyat'ın uzun yol çekici filosunu temsil eden modern kırmızı ve gümüş kamyon illüstrasyonu.</desc>
  <defs>
    <linearGradient id="bg" x1="0%" y1="0%" x2="100%" y2="100%">
      <stop offset="0%" stop-color="#0a0f1f" />
      <stop offset="100%" stop-color="#142038" />
    </linearGradient>
    <linearGradient id="cab" x1="0%" y1="0%" x2="100%" y2="0%">
      <stop offset="0%" stop-color="#e63946" />
      <stop offset="100%" stop-color="#a91e2a" />
    </linearGradient>
    <linearGradient id="trailer" x1="0%" y1="0%" x2="100%" y2="0%">
      <stop offset="0%" stop-color="#d9dce6" />
      <stop offset="100%" stop-color="#f7f8fc" />
    </linearGradient>
  </defs>
  <rect width="600" height="360" fill="url(#bg)" rx="24" />
  <g transform="translate(48 140)">
    <rect x="140" y="18" width="360" height="120" rx="22" fill="url(#trailer)" stroke="#9aa0b8" stroke-width="3" />
    <rect x="20" y="50" width="140" height="100" rx="18" fill="url(#cab)" />
    <rect x="36" y="62" width="70" height="46" rx="10" fill="#f5f6fb" />
    <path d="M130 150h30l24-36h-54z" fill="#761722" />
    <rect x="130" y="70" width="42" height="38" rx="10" fill="#e0e2ed" />
    <rect x="148" y="100" width="18" height="18" rx="6" fill="#0a0f1f" opacity="0.65" />
    <rect x="110" y="140" width="420" height="32" rx="14" fill="#1b243b" />
    <circle cx="132" cy="188" r="34" fill="#05070d" />
    <circle cx="132" cy="188" r="20" fill="#b6bfd8" />
    <circle cx="320" cy="188" r="34" fill="#05070d" />
    <circle cx="320" cy="188" r="20" fill="#b6bfd8" />
    <circle cx="468" cy="188" r="34" fill="#05070d" />
    <circle cx="468" cy="188" r="20" fill="#b6bfd8" />
    <rect x="184" y="40" width="280" height="18" rx="8" fill="#c0c5d6" />
    <rect x="184" y="110" width="280" height="12" rx="6" fill="#a5acc2" />
  </g>
  <text x="300" y="320" fill="#c0c0c0" font-family="Poppins, Montserrat, sans-serif" font-weight="600" font-size="20" text-anchor="middle">UZUN YOL ÇEKİCİ FİLOSU</text>
</svg>
