<svg width="1920" height="1080" viewBox="0 0 1920 1080" fill="none" xmlns="http://www.w3.org/2000/svg">
  <rect width="1920" height="1080" fill="#0F0F11"/>
  <linearGradient id="g1" x1="0" y1="0" x2="1" y2="1">
    <stop offset="0%" stop-color="#1C1C1E"/>
    <stop offset="100%" stop-color="#0F0F11"/>
  </linearGradient>
  <rect width="1920" height="1080" fill="url(#g1)" opacity="0.82"/>
  <g filter="url(#shadow)">
    <rect x="300" y="520" width="780" height="220" rx="28" fill="#1A1A1D"/>
    <rect x="780" y="500" width="420" height="260" rx="32" fill="#1E1E22"/>
    <rect x="300" y="450" width="500" height="140" rx="24" fill="#232327"/>
    <rect x="820" y="540" width="320" height="120" rx="18" fill="#FF4E24"/>
    <rect x="860" y="560" width="200" height="60" rx="12" fill="#FF6A3C"/>
    <rect x="340" y="560" width="240" height="120" rx="18" fill="#2A2A31"/>
    <rect x="600" y="560" width="220" height="120" rx="18" fill="#24242A"/>
    <circle cx="440" cy="760" r="86" fill="#111115" stroke="#FF4E24" stroke-width="12"/>
    <circle cx="440" cy="760" r="50" fill="#1E1E22"/>
    <circle cx="880" cy="760" r="86" fill="#111115" stroke="#FF4E24" stroke-width="12"/>
    <circle cx="880" cy="760" r="50" fill="#1E1E22"/>
  </g>
  <g opacity="0.3" stroke="#FF4E24" stroke-width="2">
    <path d="M260 400H1320"/>
    <path d="M220 460H1280"/>
    <path d="M180 520H1200"/>
    <path d="M140 580H1120"/>
  </g>
  <g opacity="0.25">
    <path d="M1200 520C1400 520 1500 600 1660 600" stroke="#FF4E24" stroke-width="18" stroke-linecap="round"/>
    <path d="M1180 570C1360 570 1460 640 1620 640" stroke="#FF7846" stroke-width="12" stroke-linecap="round"/>
    <path d="M1160 620C1320 620 1420 680 1580 680" stroke="#FF4E24" stroke-width="6" stroke-linecap="round"/>
  </g>
  <defs>
    <filter id="shadow" x="200" y="390" width="1200" height="540" filterUnits="userSpaceOnUse" color-interpolation-filters="sRGB">
      <feFlood flood-opacity="0" result="BackgroundImageFix"/>
      <feColorMatrix in="SourceAlpha" type="matrix" values="0 0 0 0 0 0 0 0 0 0 0 0 0 0 0 0 0 0 127 0" result="hardAlpha"/>
      <feOffset dy="16"/>
      <feGaussianBlur stdDeviation="60"/>
      <feColorMatrix type="matrix" values="0 0 0 0 0.04 0 0 0 0 0.04 0 0 0 0 0.05 0 0 0 0.65 0"/>
      <feBlend mode="normal" in2="BackgroundImageFix" result="effect1_dropShadow"/>
      <feBlend mode="normal" in="SourceGraphic" in2="effect1_dropShadow" result="shape"/>
    </filter>
  </defs>
</svg>
