<svg width="240" height="96" viewBox="0 0 240 96" xmlns="http://www.w3.org/2000/svg" role="img" aria-labelledby="logoTitle logoDesc">
  <title id="logoTitle">Çankaya Nakliyat logosu</title>
  <desc id="logoDesc">Kırmızı hızlı bir C simgesi ve yanında Çankaya Nakliyat yazısı</desc>
  <defs>
    <linearGradient id="speedGradient" x1="0%" y1="0%" x2="100%" y2="0%">
      <stop offset="0%" stop-color="#ff6b6b" />
      <stop offset="100%" stop-color="#e63946" />
    </linearGradient>
  </defs>
  <g transform="translate(10,10)">
    <circle cx="38" cy="38" r="38" fill="none" stroke="#0a0f1f" stroke-width="6" />
    <path d="M74 38c0-13.807-11.193-25-25-25h-9.2c-2.21 0-4 1.79-4 4v8.4c0 2.21 1.79 4 4 4h8.2c5.523 0 10 4.477 10 10s-4.477 10-10 10h-8.2c-2.21 0-4 1.79-4 4v8.4c0 2.21 1.79 4 4 4H49c13.807 0 25-11.193 25-25Z" fill="url(#speedGradient)" />
    <g fill="url(#speedGradient)">
      <rect x="82" y="22" width="28" height="6" rx="3" />
      <rect x="82" y="34" width="36" height="6" rx="3" />
      <rect x="82" y="46" width="24" height="6" rx="3" />
    </g>
  </g>
  <text x="120" y="40" font-family="'Poppins', 'Montserrat', 'Segoe UI', sans-serif" font-size="24" font-weight="700" fill="#0a0f1f">Çankaya Nakliyat</text>
  <text x="120" y="64" font-family="'Poppins', 'Montserrat', 'Segoe UI', sans-serif" font-size="12" font-weight="600" letter-spacing="0.16em" fill="#e63946">TAŞIMADA GÜVENİN ADRESİ</text>
</svg>
